<?xml version="1.0" encoding="UTF-8"?>
<svg xmlns="http://www.w3.org/2000/svg" xmlns:xlink="http://www.w3.org/1999/xlink" width="75pt" height="74.999997pt" viewBox="0 0 75 74.999997" version="1.2">
<g id="surface1">
<path style=" stroke:none;fill-rule:nonzero;fill:rgb(69.799805%,69.799805%,69.799805%);fill-opacity:1;" d="M 37.5 0.0859375 C 16.808594 0.0859375 0 16.894531 0 37.585938 C 0 56.367188 13.855469 71.910156 31.898438 74.621094 L 33.855469 74.917969 L 33.855469 45.367188 L 24.996094 45.367188 L 24.996094 39.371094 L 33.855469 39.371094 L 33.855469 31.402344 C 33.855469 26.496094 35.03125 23.265625 36.980469 21.238281 C 38.929688 19.210938 41.808594 18.1875 45.816406 18.1875 C 49.019531 18.1875 50.265625 18.382812 51.453125 18.527344 L 51.453125 23.441406 L 47.28125 23.441406 C 44.914062 23.441406 42.972656 24.761719 41.964844 26.519531 C 40.957031 28.277344 40.644531 30.378906 40.644531 32.519531 L 40.644531 39.367188 L 51.078125 39.367188 L 50.152344 45.367188 L 40.644531 45.367188 L 40.644531 74.964844 L 42.578125 74.703125 C 60.875 72.21875 75 56.550781 75 37.585938 C 75 16.894531 58.191406 0.0859375 37.5 0.0859375 Z M 37.5 3.496094 C 56.347656 3.496094 71.589844 18.738281 71.589844 37.585938 C 71.589844 54.171875 59.71875 67.808594 44.050781 70.878906 L 44.050781 48.773438 L 53.074219 48.773438 L 55.054688 35.957031 L 44.050781 35.957031 L 44.050781 32.519531 C 44.050781 30.75 44.375 29.164062 44.921875 28.214844 C 45.464844 27.261719 45.992188 26.847656 47.28125 26.847656 L 54.863281 26.847656 L 54.863281 15.441406 L 53.382812 15.242188 C 52.359375 15.105469 50.027344 14.78125 45.816406 14.78125 C 41.207031 14.78125 37.253906 16.035156 34.523438 18.875 C 31.792969 21.714844 30.445312 25.945312 30.445312 31.402344 L 30.445312 35.960938 L 21.585938 35.960938 L 21.585938 48.777344 L 30.445312 48.777344 L 30.445312 70.773438 C 15.027344 67.507812 3.410156 53.992188 3.410156 37.585938 C 3.410156 18.738281 18.652344 3.496094 37.5 3.496094 Z M 37.5 3.496094 "/>
</g>
</svg>
