<?xml version="1.0" encoding="UTF-8"?>
<svg xmlns="http://www.w3.org/2000/svg" xmlns:xlink="http://www.w3.org/1999/xlink" width="75pt" height="74.999997pt" viewBox="0 0 75 74.999997" version="1.2">
<g id="surface1">
<path style=" stroke:none;fill-rule:nonzero;fill:rgb(69.799805%,69.799805%,69.799805%);fill-opacity:1;" d="M 37.5 0 C 16.824219 0 0 16.824219 0 37.5 C 0 53.855469 10.53125 67.792969 25.160156 72.902344 C 25.367188 73.050781 25.613281 73.140625 25.878906 73.144531 C 29.535156 74.34375 33.445312 75 37.5 75 C 58.175781 75 75 58.175781 75 37.5 C 75 16.824219 58.175781 0 37.5 0 Z M 37.5 2.585938 C 56.75 2.585938 72.414062 18.25 72.414062 37.5 C 72.414062 52.578125 62.804688 65.449219 49.394531 70.328125 C 49.253906 69.910156 49.136719 69.285156 49.136719 68.863281 L 49.136719 62.070312 C 49.136719 59.363281 47.816406 56.410156 46.511719 54.429688 C 53.6875 53.21875 61.890625 49.496094 61.890625 35.601562 C 61.890625 31.792969 60.699219 28.433594 58.351562 25.605469 C 58.867188 23.90625 59.503906 20.324219 57.726562 15.832031 C 57.582031 15.472656 57.285156 15.195312 56.917969 15.074219 C 56.554688 14.960938 53.234375 14.097656 46.34375 18.617188 C 43.542969 17.894531 40.574219 17.523438 37.5 17.511719 C 34.4375 17.523438 31.46875 17.894531 28.675781 18.617188 C 21.785156 14.09375 18.457031 14.957031 18.097656 15.074219 C 17.730469 15.195312 17.429688 15.472656 17.289062 15.832031 C 15.507812 20.332031 16.144531 23.90625 16.667969 25.605469 C 14.308594 28.433594 13.117188 31.792969 13.117188 35.601562 C 13.117188 49.371094 21.175781 53.164062 28.292969 54.425781 C 27.398438 55.558594 26.457031 57.023438 26.042969 58.511719 C 24.207031 59.023438 20.4375 59.039062 17.90625 54.703125 C 17.816406 54.539062 15.601562 50.609375 11.238281 50.304688 C 10.546875 50.308594 8.789062 50.421875 8.363281 51.765625 C 7.894531 53.253906 9.542969 54.386719 10.25 54.867188 C 10.292969 54.894531 10.363281 54.9375 10.410156 54.960938 C 10.492188 55.003906 12.375 55.992188 13.78125 59.527344 C 14.074219 60.453125 16.644531 67.417969 25.871094 66.191406 C 25.878906 67.210938 25.871094 67.726562 25.863281 68.136719 L 25.863281 68.859375 C 25.863281 69.277344 25.734375 69.910156 25.59375 70.316406 C 12.183594 65.4375 2.585938 52.566406 2.585938 37.5 C 2.585938 18.25 18.25 2.585938 37.5 2.585938 Z M 37.1875 6.46875 C 32.144531 6.527344 27.160156 7.855469 22.769531 10.363281 C 22.148438 10.714844 21.933594 11.507812 22.285156 12.121094 C 22.523438 12.542969 22.957031 12.78125 23.414062 12.78125 C 23.628906 12.78125 23.847656 12.722656 24.046875 12.609375 C 29.398438 9.558594 35.710938 8.414062 41.820312 9.394531 C 42.519531 9.511719 43.183594 9.03125 43.296875 8.324219 C 43.410156 7.617188 42.929688 6.957031 42.226562 6.839844 C 40.554688 6.570312 38.867188 6.449219 37.1875 6.46875 Z M 47.398438 8.257812 C 46.898438 8.277344 46.429688 8.597656 46.25 9.097656 C 45.996094 9.769531 46.335938 10.511719 47.007812 10.765625 C 47.925781 11.109375 48.835938 11.5 49.722656 11.945312 C 49.910156 12.042969 50.109375 12.085938 50.304688 12.085938 C 50.773438 12.085938 51.230469 11.828125 51.460938 11.375 C 51.78125 10.742188 51.523438 9.960938 50.886719 9.636719 C 49.921875 9.152344 48.914062 8.714844 47.910156 8.339844 C 47.742188 8.277344 47.570312 8.253906 47.398438 8.257812 Z M 55.582031 17.515625 C 56.972656 21.605469 56.023438 24.5625 55.679688 25.402344 C 55.492188 25.867188 55.589844 26.398438 55.925781 26.765625 C 58.164062 29.214844 59.300781 32.1875 59.300781 35.601562 C 59.300781 48.707031 51.53125 51.339844 43.925781 52.183594 C 43.414062 52.238281 42.984375 52.59375 42.835938 53.082031 C 42.675781 53.574219 42.835938 54.109375 43.222656 54.445312 C 44.242188 55.320312 46.550781 59.113281 46.550781 62.070312 L 46.550781 68.863281 C 46.550781 68.886719 46.558594 70.015625 46.925781 71.109375 C 43.925781 71.953125 40.769531 72.414062 37.5 72.414062 C 34.226562 72.414062 31.066406 71.949219 28.058594 71.105469 C 28.433594 70.003906 28.441406 68.878906 28.441406 68.859375 L 28.449219 68.164062 C 28.453125 67.578125 28.464844 66.785156 28.449219 64.648438 C 28.441406 64.257812 28.265625 63.890625 27.964844 63.644531 C 27.660156 63.402344 27.261719 63.3125 26.878906 63.390625 C 18.195312 65.285156 16.316406 59.019531 16.246094 58.753906 C 16.230469 58.710938 16.214844 58.667969 16.199219 58.625 C 14.957031 55.472656 13.320312 53.867188 12.34375 53.136719 C 14.453125 53.882812 15.628906 55.9375 15.660156 55.980469 C 19.078125 61.835938 24.726562 61.988281 27.679688 60.664062 C 28.089844 60.484375 28.371094 60.105469 28.433594 59.664062 C 28.695312 57.816406 30.726562 55.371094 31.75 54.472656 C 32.136719 54.132812 32.289062 53.597656 32.128906 53.113281 C 31.980469 52.625 31.554688 52.269531 31.050781 52.214844 C 23.460938 51.351562 15.703125 48.699219 15.703125 35.601562 C 15.703125 32.191406 16.839844 29.214844 19.089844 26.765625 C 19.425781 26.398438 19.523438 25.867188 19.332031 25.402344 C 18.988281 24.5625 18.03125 21.613281 19.417969 17.523438 C 20.519531 17.558594 23.199219 18.027344 27.714844 21.09375 C 28.027344 21.304688 28.429688 21.371094 28.792969 21.269531 C 31.492188 20.519531 34.507812 20.113281 37.5 20.097656 C 40.5 20.113281 43.515625 20.519531 46.222656 21.269531 C 46.585938 21.371094 46.980469 21.304688 47.292969 21.09375 C 51.835938 18.011719 54.515625 17.554688 55.582031 17.515625 Z M 25.054688 41.890625 C 24.546875 41.828125 24.039062 42.0625 23.777344 42.527344 L 22.484375 44.761719 C 22.125 45.386719 22.335938 46.171875 22.953125 46.53125 C 23.15625 46.648438 23.375 46.703125 23.597656 46.703125 C 24.042969 46.703125 24.476562 46.472656 24.714844 46.058594 L 26.007812 43.820312 C 26.367188 43.203125 26.160156 42.410156 25.539062 42.050781 C 25.382812 41.964844 25.21875 41.910156 25.054688 41.890625 Z M 49.945312 41.890625 C 49.78125 41.910156 49.613281 41.964844 49.460938 42.050781 C 48.839844 42.410156 48.632812 43.203125 48.992188 43.824219 L 50.285156 46.0625 C 50.523438 46.476562 50.957031 46.707031 51.402344 46.707031 C 51.625 46.707031 51.84375 46.648438 52.046875 46.53125 C 52.667969 46.171875 52.875 45.386719 52.515625 44.769531 L 51.222656 42.53125 C 50.957031 42.066406 50.445312 41.828125 49.945312 41.890625 Z M 44.207031 44.410156 C 44.042969 44.382812 43.863281 44.394531 43.6875 44.445312 C 43 44.628906 42.589844 45.335938 42.773438 46.027344 L 43.445312 48.527344 C 43.601562 49.101562 44.121094 49.480469 44.691406 49.480469 C 44.808594 49.480469 44.921875 49.464844 45.03125 49.441406 C 45.71875 49.253906 46.132812 48.546875 45.945312 47.855469 L 45.277344 45.359375 C 45.136719 44.839844 44.703125 44.480469 44.207031 44.410156 Z M 30.796875 44.410156 C 30.296875 44.480469 29.863281 44.839844 29.722656 45.359375 L 29.054688 47.859375 C 28.867188 48.546875 29.28125 49.253906 29.96875 49.441406 C 30.078125 49.472656 30.191406 49.480469 30.308594 49.480469 C 30.871094 49.480469 31.398438 49.101562 31.554688 48.527344 L 32.226562 46.027344 C 32.410156 45.339844 32 44.628906 31.3125 44.445312 C 31.136719 44.394531 30.964844 44.390625 30.796875 44.410156 Z M 37.5 45.257812 C 36.78125 45.257812 36.207031 45.835938 36.207031 46.550781 L 36.207031 49.136719 C 36.207031 49.855469 36.78125 50.429688 37.5 50.429688 C 38.21875 50.429688 38.792969 49.855469 38.792969 49.136719 L 38.792969 46.550781 C 38.792969 45.835938 38.21875 45.257812 37.5 45.257812 Z M 37.5 45.257812 "/>
</g>
</svg>
