<?xml version="1.0" encoding="UTF-8"?>
<svg xmlns="http://www.w3.org/2000/svg" xmlns:xlink="http://www.w3.org/1999/xlink" width="75pt" height="74.999997pt" viewBox="0 0 75 74.999997" version="1.2">
<g id="surface1">
<path style=" stroke:none;fill-rule:nonzero;fill:rgb(69.799805%,69.799805%,69.799805%);fill-opacity:1;" d="M 37.5 0 C 16.820312 0 0 16.820312 0 37.5 C 0 58.179688 16.820312 75 37.5 75 C 58.179688 75 75 58.179688 75 37.5 C 75 16.820312 58.179688 0 37.5 0 Z M 37.5 71.703125 C 18.640625 71.703125 3.296875 56.359375 3.296875 37.5 C 3.296875 18.640625 18.640625 3.296875 37.5 3.296875 C 56.359375 3.296875 71.703125 18.640625 71.703125 37.5 C 71.703125 56.359375 56.359375 71.703125 37.5 71.703125 Z M 37.5 71.703125 "/>
<path style=" stroke:none;fill-rule:nonzero;fill:rgb(69.799805%,69.799805%,69.799805%);fill-opacity:1;" d="M 37.5 26.609375 C 31.496094 26.609375 26.609375 31.496094 26.609375 37.5 C 26.609375 43.503906 31.496094 48.390625 37.5 48.390625 C 43.503906 48.390625 48.390625 43.503906 48.390625 37.5 C 48.390625 31.496094 43.503906 26.609375 37.5 26.609375 Z M 37.5 45.320312 C 33.1875 45.320312 29.679688 41.8125 29.679688 37.5 C 29.679688 33.1875 33.1875 29.679688 37.5 29.679688 C 41.8125 29.679688 45.320312 33.1875 45.320312 37.5 C 45.320312 41.8125 41.8125 45.320312 37.5 45.320312 Z M 37.5 45.320312 "/>
<path style=" stroke:none;fill-rule:nonzero;fill:rgb(69.799805%,69.799805%,69.799805%);fill-opacity:1;" d="M 44.25 16.070312 L 30.75 16.070312 C 22.65625 16.070312 16.070312 22.65625 16.070312 30.75 L 16.070312 44.25 C 16.070312 52.34375 22.65625 58.929688 30.75 58.929688 L 44.25 58.929688 C 52.34375 58.929688 58.929688 52.34375 58.929688 44.25 L 58.929688 30.75 C 58.929688 22.65625 52.34375 16.070312 44.25 16.070312 Z M 44.25 55.859375 L 30.75 55.859375 C 24.347656 55.859375 19.140625 50.652344 19.140625 44.25 L 19.140625 30.75 C 19.140625 24.347656 24.347656 19.140625 30.75 19.140625 L 44.25 19.140625 C 50.652344 19.140625 55.859375 24.347656 55.859375 30.75 L 55.859375 44.25 C 55.859375 50.652344 50.652344 55.859375 44.25 55.859375 Z M 44.25 55.859375 "/>
<path style=" stroke:none;fill-rule:nonzero;fill:rgb(69.799805%,69.799805%,69.799805%);fill-opacity:1;" d="M 48.75 22.167969 C 46.5 22.167969 44.667969 24 44.667969 26.25 C 44.667969 28.5 46.5 30.332031 48.75 30.332031 C 51 30.332031 52.832031 28.5 52.832031 26.25 C 52.832031 24 51 22.167969 48.75 22.167969 Z M 48.75 27.261719 C 48.191406 27.261719 47.738281 26.808594 47.738281 26.25 C 47.738281 25.691406 48.191406 25.238281 48.75 25.238281 C 49.308594 25.238281 49.761719 25.691406 49.761719 26.25 C 49.761719 26.808594 49.308594 27.261719 48.75 27.261719 Z M 48.75 27.261719 "/>
</g>
</svg>
