<?xml version="1.0" encoding="UTF-8"?>
<svg xmlns="http://www.w3.org/2000/svg" xmlns:xlink="http://www.w3.org/1999/xlink" width="75pt" height="74.999997pt" viewBox="0 0 75 74.999997" version="1.2">
<g id="surface1">
<path style=" stroke:none;fill-rule:nonzero;fill:rgb(69.799805%,69.799805%,69.799805%);fill-opacity:1;" d="M 37.5 0 C 16.808594 0 0 16.808594 0 37.5 C 0 58.191406 16.808594 75 37.5 75 C 58.191406 75 75 58.191406 75 37.5 C 75 16.808594 58.191406 0 37.5 0 Z M 37.5 3.261719 C 56.429688 3.261719 71.738281 18.570312 71.738281 37.5 C 71.738281 56.429688 56.429688 71.738281 37.5 71.738281 C 18.570312 71.738281 3.261719 56.429688 3.261719 37.5 C 3.261719 18.570312 18.570312 3.261719 37.5 3.261719 Z M 22.824219 16.304688 C 20.144531 16.304688 17.933594 18.511719 17.933594 21.195312 C 17.933594 23.878906 20.144531 26.085938 22.824219 26.085938 C 25.507812 26.085938 27.71875 23.878906 27.71875 21.195312 C 27.71875 18.511719 25.507812 16.304688 22.824219 16.304688 Z M 22.824219 19.566406 C 23.746094 19.566406 24.457031 20.277344 24.457031 21.195312 C 24.457031 22.117188 23.746094 22.824219 22.824219 22.824219 C 21.90625 22.824219 21.195312 22.117188 21.195312 21.195312 C 21.195312 20.277344 21.90625 19.566406 22.824219 19.566406 Z M 19.566406 27.71875 C 19.347656 27.71875 19.140625 27.757812 18.941406 27.839844 C 18.742188 27.925781 18.566406 28.042969 18.414062 28.195312 C 18.257812 28.347656 18.140625 28.523438 18.058594 28.722656 C 17.976562 28.921875 17.933594 29.132812 17.933594 29.347656 L 17.933594 53.804688 C 17.933594 54.019531 17.976562 54.230469 18.058594 54.429688 C 18.140625 54.628906 18.257812 54.804688 18.414062 54.957031 C 18.566406 55.109375 18.742188 55.226562 18.941406 55.3125 C 19.140625 55.394531 19.347656 55.433594 19.566406 55.433594 L 26.085938 55.433594 C 26.304688 55.433594 26.511719 55.394531 26.710938 55.3125 C 26.910156 55.226562 27.085938 55.109375 27.238281 54.957031 C 27.394531 54.804688 27.511719 54.628906 27.59375 54.429688 C 27.675781 54.226562 27.71875 54.019531 27.71875 53.804688 L 27.71875 29.347656 C 27.71875 29.132812 27.675781 28.921875 27.59375 28.722656 C 27.511719 28.523438 27.394531 28.347656 27.238281 28.195312 C 27.085938 28.042969 26.910156 27.925781 26.710938 27.839844 C 26.511719 27.757812 26.304688 27.71875 26.085938 27.71875 Z M 32.609375 27.71875 C 32.390625 27.71875 32.183594 27.757812 31.984375 27.839844 C 31.785156 27.925781 31.609375 28.042969 31.457031 28.195312 C 31.304688 28.347656 31.183594 28.523438 31.101562 28.722656 C 31.019531 28.921875 30.976562 29.132812 30.976562 29.347656 L 30.976562 53.804688 C 30.976562 54.019531 31.019531 54.230469 31.101562 54.429688 C 31.183594 54.628906 31.304688 54.804688 31.457031 54.957031 C 31.609375 55.109375 31.785156 55.226562 31.984375 55.3125 C 32.183594 55.394531 32.390625 55.433594 32.609375 55.433594 L 39.128906 55.433594 C 39.347656 55.433594 39.554688 55.394531 39.753906 55.3125 C 39.953125 55.226562 40.128906 55.109375 40.285156 54.957031 C 40.4375 54.804688 40.554688 54.628906 40.636719 54.429688 C 40.71875 54.226562 40.761719 54.019531 40.761719 53.804688 L 40.761719 41.574219 C 40.761719 39.328125 42.585938 37.5 44.835938 37.5 C 47.085938 37.5 48.914062 39.328125 48.914062 41.574219 L 48.914062 53.804688 C 48.914062 54.019531 48.953125 54.230469 49.039062 54.429688 C 49.121094 54.628906 49.238281 54.804688 49.390625 54.957031 C 49.542969 55.109375 49.71875 55.226562 49.917969 55.3125 C 50.121094 55.394531 50.328125 55.433594 50.542969 55.433594 L 57.066406 55.433594 C 57.28125 55.433594 57.488281 55.394531 57.6875 55.3125 C 57.890625 55.226562 58.066406 55.109375 58.21875 54.957031 C 58.371094 54.804688 58.488281 54.628906 58.570312 54.429688 C 58.652344 54.226562 58.695312 54.019531 58.695312 53.804688 L 58.695312 39.945312 C 58.695312 33.210938 53.203125 27.71875 46.46875 27.71875 C 44.371094 27.71875 42.488281 28.394531 40.761719 29.332031 C 40.757812 29.117188 40.714844 28.910156 40.632812 28.710938 C 40.546875 28.515625 40.429688 28.339844 40.277344 28.1875 C 40.125 28.039062 39.949219 27.921875 39.75 27.839844 C 39.550781 27.757812 39.34375 27.71875 39.128906 27.71875 Z M 21.195312 30.976562 L 24.457031 30.976562 L 24.457031 52.175781 L 21.195312 52.175781 Z M 34.238281 30.976562 L 37.5 30.976562 L 37.5 32.308594 C 37.5 32.636719 37.589844 32.9375 37.769531 33.207031 C 37.949219 33.480469 38.191406 33.679688 38.492188 33.808594 C 38.792969 33.9375 39.105469 33.972656 39.425781 33.914062 C 39.746094 33.855469 40.023438 33.710938 40.261719 33.484375 C 41.875 31.933594 44.050781 30.976562 46.46875 30.976562 C 51.441406 30.976562 55.433594 34.972656 55.433594 39.945312 L 55.433594 52.175781 L 52.175781 52.175781 L 52.175781 41.574219 C 52.175781 37.546875 48.863281 34.238281 44.835938 34.238281 C 40.808594 34.238281 37.5 37.546875 37.5 41.574219 L 37.5 52.175781 L 34.238281 52.175781 Z M 34.238281 30.976562 "/>
</g>
</svg>
